<svg width="363" height="231" viewBox="0 0 363 231" fill="none" xmlns="http://www.w3.org/2000/svg">
<g opacity="0.3">
<path d="M98.6963 20.5481L361.207 172.656L261.648 230.14L1.36987 77.1273L98.6963 20.5481Z" fill="#253C77"/>
<path d="M98.6963 20.5481L361.207 172.656L261.648 230.14L1.36987 77.1273L98.6963 20.5481Z" fill="#253C77"/>
</g>
<path d="M132.889 137.197L0 60.7034L105.178 0L237.991 76.4935L132.889 137.197Z" fill="url(#paint0_linear)"/>
<path opacity="0.504" d="M210.173 78.6218L138.446 37.2087L144.034 33.9937L215.761 75.4067L210.173 78.6218Z" fill="#5A9ADD"/>
<path d="M34.7535 80.7595L0.459473 61.0098L105.638 0.306396L139.932 20.0561L34.7535 80.7595Z" fill="#7EBEF2"/>
<path opacity="0.43" d="M340.797 142.764L99.8207 3.67416L105.179 0.535645L346.156 139.702L340.797 142.764Z" fill="#6EADEF"/>
<path d="M121.855 23.185C121.876 19.4223 116.649 16.3437 110.18 16.3086C103.712 16.2735 98.4519 19.2953 98.4315 23.058C98.4111 26.8206 103.638 29.8993 110.107 29.9344C116.575 29.9694 121.835 26.9476 121.855 23.185Z" fill="#5A9ADD"/>
<path d="M50.2166 75.3242L26.6395 61.6984L46.6188 50.2161L70.196 63.7653L50.2166 75.3242Z" fill="#5A9ADD"/>
<path opacity="0.43" d="M270.754 184.636L236.766 165.04L266.773 147.74L300.761 167.336L270.754 184.636Z" fill="#6EADEF"/>
<path d="M88.3019 75.0101L93.1626 77.8456L100.859 73.3899L111.593 79.6683L114.833 77.8456L104.099 71.5671L111.188 67.5165L123.542 74.6051C128.606 77.4405 133.669 79.0607 138.732 79.2633C143.795 79.4658 148.251 78.4531 152.504 76.0228C156.555 73.5924 158.378 70.9595 157.972 67.9215C157.567 64.8836 154.935 61.8456 150.074 59.0102L133.264 49.0862L109.568 62.6557L102.682 58.6051L99.4411 60.4279L106.327 64.4785L99.2385 68.5291L92.3525 64.4785L89.112 66.3013L95.998 70.3519L88.3019 75.0101ZM126.175 72.3772L114.428 65.4912L134.681 53.7444L147.036 60.833C150.276 62.8583 151.897 64.8836 151.694 66.9089C151.694 69.1367 150.276 71.162 147.238 72.7823C143.998 74.6051 140.352 75.6177 136.707 75.4152C133.264 75.4152 129.618 74.4025 126.175 72.3772Z" fill="white"/>
<path d="M195.429 173.17L132.878 137.199L238.132 76.7134L300.683 112.685L195.429 173.17Z" fill="#D7F2A2"/>
<path d="M240.492 199.246L163.016 154.708L268.269 94.2222L345.693 138.761L240.492 199.246Z" fill="#8CCA11"/>
<path d="M257.749 209.155L240.492 199.246L345.693 138.76L362.951 148.669L257.749 209.155Z" fill="#78B106"/>
<g opacity="0.15">
<g opacity="0.15">
<path opacity="0.15" d="M336.654 154.811C335.876 154.398 335.047 154.14 334.114 154.14C333.182 154.14 332.197 154.346 331.161 154.759L334.788 156.875L333.544 157.598L329.761 155.43L329.399 155.637L328.984 155.895L328.673 156.101L331.938 157.959L330.746 158.682L327.637 156.875C326.341 158.011 326.445 159.043 328.051 159.972C328.828 160.385 329.761 160.746 330.901 161.056L329.295 161.984C328.258 161.778 327.274 161.417 326.393 160.849C325.097 160.127 324.423 159.301 324.32 158.423C324.216 157.546 324.683 156.669 325.771 155.791L324.579 155.069L325.771 154.346L326.859 154.966L327.118 154.811L327.429 154.656L327.947 154.346L326.859 153.727L328.103 153.005L329.295 153.675C330.85 153.005 332.404 152.695 333.959 152.746C335.514 152.798 336.965 153.159 338.26 153.933C339.349 154.553 340.074 155.224 340.437 155.998L338.26 156.462C337.794 155.74 337.276 155.172 336.654 154.811Z" fill="#D4EBCE"/>
</g>
</g>
<path d="M355.984 151.869L343.546 144.747L344.583 144.128L357.02 151.302L355.984 151.869Z" fill="#518D43"/>
<path d="M351.112 154.708L338.675 147.534L339.711 146.966L352.149 154.088L351.112 154.708Z" fill="#518D43"/>
<path opacity="0.25" d="M226.736 164.978L232.903 102.428L236.22 102.583L230.053 165.081L226.736 164.978Z" fill="#D4EBCE"/>
<path opacity="0.25" d="M215.801 167.3L222.693 97.3704L226.01 97.4736L219.066 167.404L215.801 167.3Z" fill="#D4EBCE"/>
<path opacity="0.25" d="M204.867 169.416L212.899 88.2874L216.164 88.3906L208.132 169.571L204.867 169.416Z" fill="#D4EBCE"/>
<path opacity="0.25" d="M194.449 166.114L202.482 84.9329L205.799 85.0877L197.766 166.268L194.449 166.114Z" fill="#D4EBCE"/>
<path opacity="0.25" d="M184.759 155.843L191.185 90.6096L194.502 90.7128L188.075 155.946L184.759 155.843Z" fill="#D4EBCE"/>
<path d="M229.491 135.538L235.437 139.105L234.247 139.7C228.896 142.97 226.22 146.538 226.22 150.105C226.22 153.673 229.193 157.241 234.842 160.511C237.22 161.997 239.896 163.186 242.869 164.376L246.734 161.403C244.355 160.511 241.977 159.619 239.896 158.43C236.031 156.051 233.95 153.673 234.247 151.295C234.247 148.916 236.626 146.241 240.788 143.565L241.977 142.673L254.464 149.808L256.842 148.322L244.355 141.186L251.491 137.024L263.977 144.159L266.355 142.673L253.572 135.835L255.058 135.241C259.518 132.862 263.68 131.97 268.139 131.673C272.599 131.673 276.761 132.565 280.626 134.943C282.707 135.835 284.49 137.322 285.977 138.808L291.031 136.43C288.95 134.646 286.869 133.159 284.788 131.97C279.139 128.7 273.193 127.214 266.95 126.916C260.707 126.916 254.464 128.403 248.518 131.376L247.328 131.97L241.382 128.403L239.004 129.889L244.95 133.457L237.815 137.619L231.869 134.051L229.491 135.538Z" fill="white"/>
<defs>
<linearGradient id="paint0_linear" x1="87.1009" y1="21.6146" x2="302.77" y2="169.502" gradientUnits="userSpaceOnUse">
<stop stop-color="#92C8F5"/>
<stop offset="0.926275" stop-color="#DDF0FF"/>
</linearGradient>
</defs>
</svg>
