<svg width="343" height="209" viewBox="0 0 343 209" fill="none" xmlns="http://www.w3.org/2000/svg">
<path d="M0.481079 132.963L21.1495 129.335L223.179 12.799C227.089 10.5669 233.886 10.8459 238.354 13.4501L331.921 67.4865L342.441 65.6264V76.3221C342.441 77.7172 341.604 79.1122 339.835 80.1353L119.744 207.088C115.833 209.32 109.037 209.041 104.568 206.437L4.11203 148.495C1.5983 147.1 0.388 145.239 0.388 143.472V132.963H0.481079Z" fill="#528BE1"/>
<path d="M4.20523 137.892L104.661 195.835C109.13 198.439 115.927 198.718 119.837 196.486L339.835 69.5328C343.745 67.3006 343.186 63.3944 338.718 60.7902L238.261 2.84753C233.793 0.243366 226.996 -0.0356485 223.086 2.19649L2.99493 129.15C-0.729126 131.382 -0.263611 135.288 4.20523 137.892Z" fill="url(#paint0_linear)"/>
<path d="M19.3801 119.848L136.036 187.091L335.551 72.4151L218.896 5.07886L19.3801 119.848Z" fill="url(#paint1_linear)"/>
<path d="M271.684 30.1903L287.139 39.1188C287.79 39.4909 288.815 39.5839 289.373 39.2118L289.559 39.1188C290.118 38.7468 290.025 38.1888 289.373 37.8167L273.918 28.8882C273.267 28.5162 272.243 28.4232 271.684 28.7952L271.498 28.8882C270.939 29.2602 271.032 29.8182 271.684 30.1903Z" fill="#8DBCEB"/>
<path d="M55.9699 154.168C51.408 156.865 51.3149 161.143 55.8768 163.747C60.4388 166.352 67.8868 166.352 72.5419 163.747C77.1038 161.05 77.1969 156.772 72.635 154.168C68.073 151.471 60.625 151.471 55.9699 154.168Z" fill="#528BE1"/>
<defs>
<linearGradient id="paint0_linear" x1="414.783" y1="-12.5728" x2="119.629" y2="125.242" gradientUnits="userSpaceOnUse">
<stop offset="0.00200321" stop-color="#B7D5FD"/>
<stop offset="0.9658" stop-color="#89B8FB"/>
</linearGradient>
<linearGradient id="paint1_linear" x1="303.371" y1="80.4032" x2="159.481" y2="301.238" gradientUnits="userSpaceOnUse">
<stop offset="0.250622" stop-color="#4C6CC0"/>
<stop offset="0.9658" stop-color="#253C77"/>
</linearGradient>
</defs>
</svg>
